<svg width="430" height="225" viewBox="0 0 430 225" fill="none" xmlns="http://www.w3.org/2000/svg">
<rect width="430" height="225" fill="url(#paint0_linear_353_2)" fill-opacity="0.43"/>
<path d="M134.541 151.676L137.961 121.796C137.961 120.116 137.541 118.736 136.701 117.656C135.921 116.516 134.511 115.946 132.471 115.946C130.431 115.946 128.751 116.936 127.431 118.916C126.111 120.836 125.271 122.876 124.911 125.036C122.811 139.976 121.641 148.856 121.401 151.676H109.341L114.291 109.376C116.811 108.716 118.731 108.386 120.051 108.386C123.831 108.386 125.901 109.646 126.261 112.166C129.201 109.646 132.411 108.386 135.891 108.386C142.851 108.386 147.291 110.456 149.211 114.596C152.151 110.396 156.351 108.296 161.811 108.296C165.831 108.296 169.011 109.346 171.351 111.446C173.691 113.486 174.861 116.066 174.861 119.186C174.861 120.086 174.681 121.676 174.321 123.956C172.941 132.956 172.251 138.236 172.251 139.796C172.251 142.616 173.181 144.026 175.041 144.026C176.601 144.026 178.251 143.006 179.991 140.966C181.791 138.866 183.231 135.656 184.311 131.336C186.351 133.496 187.581 135.206 188.001 136.466C184.881 146.906 179.361 152.126 171.441 152.126C167.721 152.126 164.961 150.986 163.161 148.706C161.361 146.426 160.461 144.026 160.461 141.506L162.621 121.616C162.621 119.996 162.201 118.646 161.361 117.566C160.521 116.486 159.171 115.946 157.311 115.946C155.511 115.946 153.921 116.636 152.541 118.016C151.161 119.396 150.201 121.166 149.661 123.326C147.861 138.566 146.691 148.016 146.151 151.676H134.541ZM188.335 85.436C189.715 83.996 191.395 83.276 193.375 83.276C195.355 83.276 197.035 83.996 198.415 85.436C199.855 86.816 200.575 88.496 200.575 90.476C200.575 92.456 199.855 94.136 198.415 95.516C197.035 96.896 195.355 97.586 193.375 97.586C191.395 97.586 189.715 96.896 188.335 95.516C186.955 94.136 186.265 92.456 186.265 90.476C186.265 88.496 186.955 86.816 188.335 85.436ZM184.645 111.806C185.245 110.726 186.385 109.916 188.065 109.376C189.745 108.776 191.395 108.476 193.015 108.476C194.695 108.476 196.165 108.686 197.425 109.106C195.085 127.166 193.915 136.286 193.915 136.466C193.615 137.666 193.465 138.686 193.465 139.526C193.465 140.306 193.525 140.996 193.645 141.596C193.885 143.156 194.965 143.936 196.885 143.936C198.865 143.936 200.665 142.676 202.285 140.156C203.965 137.576 205.225 134.666 206.065 131.426C206.485 131.666 207.145 132.386 208.045 133.586C208.945 134.786 209.485 135.686 209.665 136.286C208.465 141.086 206.425 144.956 203.545 147.896C200.665 150.836 197.215 152.306 193.195 152.306C189.175 152.306 186.175 151.316 184.195 149.336C182.275 147.356 181.315 144.806 181.315 141.686C181.315 141.026 181.345 140.336 181.405 139.616L184.645 111.806ZM214.385 152.306C210.725 152.306 207.845 151.286 205.745 149.246C203.645 147.146 202.595 144.296 202.595 140.696C202.595 139.736 204.215 125.486 207.455 97.946C208.295 90.866 210.545 86.396 214.205 84.536C215.885 83.636 217.895 83.186 220.235 83.186C228.155 83.186 232.115 86.846 232.115 94.166C232.115 94.766 232.085 95.396 232.025 96.056C231.425 104.096 226.385 112.286 216.905 120.626C216.605 123.566 216.275 126.416 215.915 129.176C215.195 135.356 214.835 138.776 214.835 139.436C214.835 142.556 216.185 144.116 218.885 144.116C221.825 144.116 224.555 142.436 227.075 139.076C229.655 135.656 231.635 131.306 233.015 126.026C233.555 126.206 234.305 126.716 235.265 127.556C236.225 128.336 236.885 129.026 237.245 129.626C236.285 134.606 234.125 139.376 230.765 143.936C229.085 146.276 226.955 148.196 224.375 149.696C221.435 151.436 218.105 152.306 214.385 152.306ZM217.895 111.626C223.415 105.566 226.175 100.136 226.175 95.336C226.175 92.456 225.095 91.016 222.935 91.016C221.555 91.136 220.625 92.036 220.145 93.716C219.725 95.396 219.305 98.126 218.885 101.906C218.525 105.686 218.285 108.026 218.165 108.926L217.895 111.626ZM269.885 152.126C264.365 152.126 260.705 150.206 258.905 146.366C255.785 150.266 251.765 152.216 246.845 152.216C241.985 152.216 237.875 150.566 234.515 147.266C231.215 143.966 229.565 139.616 229.565 134.216C229.565 126.356 231.875 120.086 236.495 115.406C241.115 110.726 246.965 108.386 254.045 108.386C254.225 108.386 254.405 108.386 254.585 108.386C257.585 108.386 260.345 108.896 262.865 109.916C264.485 108.896 266.435 108.386 268.715 108.386C271.055 108.386 272.735 108.686 273.755 109.286C273.215 113.726 272.645 118.106 272.045 122.426C271.445 126.686 271.025 129.716 270.785 131.516C270.245 135.596 269.975 138.536 269.975 140.336C269.975 142.736 270.935 143.936 272.855 143.936C274.355 143.936 275.945 142.946 277.625 140.966C279.305 138.926 280.775 135.746 282.035 131.426C283.775 132.986 284.975 134.726 285.635 136.646C283.895 142.346 281.555 146.366 278.615 148.706C275.675 150.986 272.765 152.126 269.885 152.126ZM255.395 115.406C251.555 115.406 248.495 116.876 246.215 119.816C243.995 122.696 242.675 127.016 242.255 132.776C242.195 133.316 242.165 133.826 242.165 134.306C242.165 137.246 242.855 139.586 244.235 141.326C245.675 143.066 247.505 143.936 249.725 143.936C253.505 143.936 256.355 141.266 258.275 135.926L260.435 116.486C258.695 115.766 257.015 115.406 255.395 115.406ZM289.042 108.296C292.942 108.296 295.222 109.286 295.882 111.266C298.702 109.286 302.272 108.296 306.592 108.296C310.912 108.296 314.632 110.066 317.752 113.606C320.872 117.146 322.432 121.286 322.432 126.026C322.432 126.686 322.402 127.376 322.342 128.096C321.682 135.956 319.042 141.956 314.422 146.096C309.802 150.176 303.772 152.216 296.332 152.216C294.652 152.216 292.822 152.006 290.842 151.586L287.962 176.336H276.172C280.012 143.276 282.592 120.836 283.912 109.016C285.172 108.536 286.882 108.296 289.042 108.296ZM309.742 126.656C309.742 124.016 309.142 121.676 307.942 119.636C306.742 117.596 304.882 116.576 302.362 116.576C298.942 116.576 296.332 118.796 294.532 123.236C293.332 132.116 292.642 137.276 292.462 138.716C292.402 140.516 292.972 141.866 294.172 142.766C295.372 143.666 296.842 144.116 298.582 144.116C301.642 144.116 304.162 142.736 306.142 139.976C308.542 136.556 309.742 132.116 309.742 126.656Z" fill="white"/>
<g clip-path="url(#clip0_353_2)">
<path d="M176.332 88.0437C178.192 93.8744 184.839 95.6719 189.867 97.4943C191.641 98.1374 193.343 98.7355 194.75 98.4097C196.158 98.0838 197.27 96.834 198.418 95.5143C201.672 91.7745 206.337 87.3577 204.478 81.527C202.618 75.6963 193.559 73.3534 189.014 80.4252C180.894 76.2858 174.472 82.213 176.332 88.0437Z" fill="#FF0000" stroke="white" stroke-width="0.66"/>
</g>
<defs>
<linearGradient id="paint0_linear_353_2" x1="0" y1="0" x2="430" y2="225" gradientUnits="userSpaceOnUse">
<stop/>
<stop offset="1" stop-color="white"/>
</linearGradient>
<clipPath id="clip0_353_2">
<rect width="34.6686" height="30.2047" fill="white" transform="matrix(0.974228 -0.225565 0.303874 0.952712 170.023 77.7397)"/>
</clipPath>
</defs>
</svg>
